<mxfile host="app.diagrams.net" agent="Mozilla/5.0 (Windows NT 10.0; Win64; x64) AppleWebKit/537.36 (KHTML, like Gecko) Chrome/127.0.0.0 Safari/537.36" version="24.7.7">
  <diagram name="Page-1" id="huu7HyZWamjZOq40nWGK">
    <mxGraphModel dx="1059" dy="656" grid="1" gridSize="10" guides="1" tooltips="1" connect="1" arrows="1" fold="1" page="1" pageScale="1" pageWidth="850" pageHeight="1100" math="0" shadow="0">
      <root>
        <mxCell id="0" />
        <mxCell id="1" parent="0" />
        <mxCell id="Ckxw2Lk6D4IO4hTLVTtJ-4" style="edgeStyle=orthogonalEdgeStyle;rounded=0;orthogonalLoop=1;jettySize=auto;html=1;" parent="1" source="Ckxw2Lk6D4IO4hTLVTtJ-2" edge="1">
          <mxGeometry relative="1" as="geometry">
            <mxPoint x="450.0000000000002" y="280" as="targetPoint" />
          </mxGeometry>
        </mxCell>
        <mxCell id="Ckxw2Lk6D4IO4hTLVTtJ-2" value="Application-3&lt;div&gt;Fee Management System&lt;/div&gt;" style="rounded=0;whiteSpace=wrap;html=1;fillColor=#FFCCCC;" parent="1" vertex="1">
          <mxGeometry x="310" y="50" width="280" height="70" as="geometry" />
        </mxCell>
        <mxCell id="Ckxw2Lk6D4IO4hTLVTtJ-17" style="edgeStyle=orthogonalEdgeStyle;rounded=0;orthogonalLoop=1;jettySize=auto;html=1;entryX=0;entryY=0.5;entryDx=0;entryDy=0;" parent="1" source="Ckxw2Lk6D4IO4hTLVTtJ-5" target="Ckxw2Lk6D4IO4hTLVTtJ-8" edge="1">
          <mxGeometry relative="1" as="geometry" />
        </mxCell>
        <mxCell id="Ckxw2Lk6D4IO4hTLVTtJ-5" value="class MainApplication{&lt;div&gt;&lt;font style=&quot;font-size: 10px;&quot;&gt;public static void main(String[] args)&lt;/font&gt;&lt;/div&gt;&lt;div&gt;&lt;font style=&quot;font-size: 10px;&quot;&gt;handleGeneralModule();&lt;/font&gt;&lt;/div&gt;&lt;div&gt;&lt;font style=&quot;font-size: 10px;&quot;&gt;hanldlePaymentModule();&lt;/font&gt;&lt;/div&gt;&lt;div&gt;&lt;font style=&quot;font-size: 10px;&quot;&gt;handleReportModule();&lt;/font&gt;&lt;/div&gt;&lt;div&gt;&lt;font style=&quot;font-size: 10px;&quot;&gt;}&lt;/font&gt;&lt;/div&gt;" style="rounded=1;whiteSpace=wrap;html=1;fillColor=#FFCCCC;" parent="1" vertex="1">
          <mxGeometry x="365" y="280" width="170" height="250" as="geometry" />
        </mxCell>
        <mxCell id="Ckxw2Lk6D4IO4hTLVTtJ-6" value="MainApplication.java" style="text;html=1;align=center;verticalAlign=middle;whiteSpace=wrap;rounded=0;" parent="1" vertex="1">
          <mxGeometry x="420" y="535" width="60" height="30" as="geometry" />
        </mxCell>
        <mxCell id="Ckxw2Lk6D4IO4hTLVTtJ-8" value="class FeeManagement extends FeeDetails implements StudentInterface{&#xa;calculateTotalFees();&#xa;branchSelection();&#xa;calculatemiscelleneousFees();&#xa;processPayment();&#xa;studentInfo();&#xa;}&#xa;" style="rounded=1;align=center;verticalAlign=middle;whiteSpace=wrap;fillColor=#FFCCCC;" parent="1" vertex="1">
          <mxGeometry x="650" y="280" width="170" height="250" as="geometry" />
        </mxCell>
        <mxCell id="Ckxw2Lk6D4IO4hTLVTtJ-9" value="FeeManagement.java" style="text;html=1;align=center;verticalAlign=middle;whiteSpace=wrap;rounded=0;" parent="1" vertex="1">
          <mxGeometry x="705" y="535" width="60" height="30" as="geometry" />
        </mxCell>
        <mxCell id="Ckxw2Lk6D4IO4hTLVTtJ-11" value="studentInfo(id,branch);&lt;div&gt;CalculateTotalFees();&lt;/div&gt;&lt;div&gt;&lt;br&gt;&lt;/div&gt;" style="rounded=1;whiteSpace=wrap;html=1;fillColor=#FFCCCC;" parent="1" vertex="1">
          <mxGeometry x="57" y="260" width="140" height="100" as="geometry" />
        </mxCell>
        <mxCell id="Ckxw2Lk6D4IO4hTLVTtJ-12" value="//abstractmethod&lt;div&gt;calculateTotalFees();&lt;/div&gt;&lt;div&gt;//concrete method&lt;/div&gt;&lt;div&gt;dispalyFees();&lt;/div&gt;" style="rounded=1;whiteSpace=wrap;html=1;fillColor=#FFCCCC;" parent="1" vertex="1">
          <mxGeometry x="60" y="440" width="140" height="130" as="geometry" />
        </mxCell>
        <mxCell id="Ckxw2Lk6D4IO4hTLVTtJ-13" value="StudentInterface" style="text;html=1;align=center;verticalAlign=middle;whiteSpace=wrap;rounded=0;" parent="1" vertex="1">
          <mxGeometry x="97" y="370" width="60" height="30" as="geometry" />
        </mxCell>
        <mxCell id="Ckxw2Lk6D4IO4hTLVTtJ-16" value="FeeDetails.java" style="text;html=1;align=center;verticalAlign=middle;whiteSpace=wrap;rounded=0;" parent="1" vertex="1">
          <mxGeometry x="97" y="580" width="60" height="30" as="geometry" />
        </mxCell>
        <mxCell id="Ckxw2Lk6D4IO4hTLVTtJ-23" value="HAS-A relation" style="text;html=1;align=center;verticalAlign=middle;whiteSpace=wrap;rounded=0;" parent="1" vertex="1">
          <mxGeometry x="560" y="370" width="60" height="30" as="geometry" />
        </mxCell>
        <mxCell id="Ckxw2Lk6D4IO4hTLVTtJ-31" value="" style="endArrow=open;endFill=1;endSize=12;html=1;rounded=0;exitX=1;exitY=0.5;exitDx=0;exitDy=0;entryX=0.011;entryY=0.89;entryDx=0;entryDy=0;entryPerimeter=0;" parent="1" source="Ckxw2Lk6D4IO4hTLVTtJ-12" target="Ckxw2Lk6D4IO4hTLVTtJ-5" edge="1">
          <mxGeometry width="160" relative="1" as="geometry">
            <mxPoint x="290" y="450" as="sourcePoint" />
            <mxPoint x="370" y="470" as="targetPoint" />
          </mxGeometry>
        </mxCell>
        <mxCell id="Ckxw2Lk6D4IO4hTLVTtJ-32" value="" style="endArrow=open;endFill=1;endSize=12;html=1;rounded=0;entryX=0;entryY=0.25;entryDx=0;entryDy=0;exitX=0.437;exitY=-0.013;exitDx=0;exitDy=0;exitPerimeter=0;" parent="1" source="Ckxw2Lk6D4IO4hTLVTtJ-11" target="Ckxw2Lk6D4IO4hTLVTtJ-5" edge="1">
          <mxGeometry width="160" relative="1" as="geometry">
            <mxPoint x="120" y="240" as="sourcePoint" />
            <mxPoint x="450" y="450" as="targetPoint" />
            <Array as="points">
              <mxPoint x="118" y="240" />
              <mxPoint x="270" y="240" />
              <mxPoint x="270" y="343" />
            </Array>
          </mxGeometry>
        </mxCell>
        <mxCell id="Ckxw2Lk6D4IO4hTLVTtJ-34" value="implements" style="text;html=1;align=center;verticalAlign=middle;whiteSpace=wrap;rounded=0;" parent="1" vertex="1">
          <mxGeometry x="150" y="210" width="60" height="30" as="geometry" />
        </mxCell>
        <mxCell id="Ckxw2Lk6D4IO4hTLVTtJ-35" value="extends" style="text;html=1;align=center;verticalAlign=middle;whiteSpace=wrap;rounded=0;" parent="1" vertex="1">
          <mxGeometry x="240" y="480" width="60" height="30" as="geometry" />
        </mxCell>
      </root>
    </mxGraphModel>
  </diagram>
</mxfile>
